mtllib scene0420_01_wall.mtl
v 3.114337 -2.799133 1.703725
v 3.247737 -2.803233 1.703725
v 3.247737 -2.803233 -1.296275
v 3.114337 -2.799133 -1.296275
v 2.247737 -2.772933 1.703725
v 3.114337 -2.799133 0.876225
v 2.247737 -2.772933 0.876225
v -3.418463 -2.601133 1.703725
v 2.247737 -2.772933 -1.296275
v -3.418463 -2.601133 -1.296275
v -3.411463 -2.281733 1.703725
v -3.411463 -2.281733 -1.296275
v -3.300863 2.669067 -0.308875
v -3.411463 -2.281733 -0.308875
v -3.300863 2.669067 -1.296275
v -3.300863 2.669067 1.703725
v -3.411463 -2.281733 0.876225
v -3.300863 2.669067 0.876225
v -3.299763 2.722267 1.703725
v -3.299763 2.722267 -1.296275
v 3.532937 2.484667 1.703725
v 3.532937 2.484667 -1.296275
vn 0.030401 0.999538 -0.0
vn 0.030298 0.999541 -0.0
vn 0.999756 -0.022101 0.0
vn 0.999751 -0.022301 0.0
vn 0.999765 -0.021699 0.0
vn -0.0348 -0.999394 0.0
vn -0.998546 0.053902 -0.0
vt -6.945950272 1.0
vt -7.242113359999999 1.0
vt -7.242113359999999 0.0
vt -6.945950272 0.0
vt -5.02111216 1.0
vt -6.945950272 0.7241666433325212
vt -5.02111216 0.7241666433325212
vt 7.564265359999999 1.0
vt -5.02111216 0.0
vt 7.564265359999999 0.0
vt -5.078279632 1.0
vt -5.787384048 1.0
vt -5.787384048 0.0
vt -5.078279632 0.0
vt 5.9150542 0.3291333236620747
vt -5.078279632 0.3291333236620747
vt 5.9150542 0.0
vt 5.9150542 1.0
vt -5.078279632 0.7241666433325212
vt 5.9150542 0.7241666433325212
vt 6.033164448 1.0
vt 6.033164448 0.0
vt -7.465234744 1.0
vt 7.713234248 1.0
vt 7.713234248 0.0
vt -7.465234744 0.0
vt -5.719226704 1.0
vt 6.035384296 1.0
vt 6.035384296 0.0
vt -5.719226704 0.0
usemtl combined_material
f 1/1/1 2/2/1 3/3/1
f 4/4/1 1/1/1 3/3/1
f 5/5/2 1/1/2 6/6/2
f 7/7/2 5/5/2 6/6/2
f 8/8/2 5/5/2 9/9/2
f 10/10/2 8/8/2 9/9/2
f 11/11/3 8/12/3 10/13/3
f 12/14/3 11/11/3 10/13/3
f 13/15/4 14/16/4 12/14/4
f 15/17/4 13/15/4 12/14/4
f 16/18/4 11/11/4 17/19/4
f 18/20/4 16/18/4 17/19/4
f 19/21/5 16/18/5 15/17/5
f 20/22/5 19/21/5 15/17/5
f 21/23/6 19/24/6 20/25/6
f 22/26/6 21/23/6 20/25/6
f 2/27/7 21/28/7 22/29/7
f 3/30/7 2/27/7 22/29/7
